<svg xmlns="http://www.w3.org/2000/svg" version="1.1" width="205" height="205" viewBox="0 0 205 205" style="
        -moz-user-select:none;
        -ms-user-select:none;
        -webkit-user-select:none;
        user-select:none;
        -webkit-tap-highlight-color: rgba(0,0,0,0);
">
    <defs></defs> <!-- defs is used to store graphical objects that will be used at a later time. They are not displayed directly, but only when they are referenced, with a <use> elt for ex -->
    <g id="two-0" transform="matrix(1 0 0 1 0 0)" opacity="1">
        <g id="two-439" transform="matrix(1 0 0 1 102.5 102.5)" opacity="1">
            <path transform="matrix(-0.5 -0.867 0.866 -0.5 0 0)" d="M 77.9 0 C 77.9 0 77.909 0.944 77.86 2.471 C 77.836 3.234 77.791 4.178 77.743 4.94 C 77.694 5.702 77.619 6.644 77.547 7.404 C 77.474 8.165 77.369 9.103 77.273 9.861 C 77.176 10.619 77.042 11.554 76.921 12.308 C 76.8 13.062 76.636 13.992 76.492 14.742 C 76.347 15.492 76.154 16.417 75.985 17.162 C 75.817 17.907 75.595 18.825 75.403 19.564 C 75.211 20.303 74.959 21.214 74.744 21.946 C 74.529 22.679 74.248 23.581 74.01 24.307 C 73.772 25.032 73.463 25.925 73.202 26.643 C 72.94 27.361 72.603 28.243 72.319 28.952 C 72.036 29.661 71.671 30.532 71.364 31.232 C 71.058 31.932 70.666 32.791 70.337 33.481 C 70.009 34.17 69.59 35.017 69.24 35.695 C 68.89 36.374 68.444 37.207 68.072 37.874 C 67.701 38.542 67.229 39.36 66.836 40.015 C 66.444 40.67 65.946 41.473 65.533 42.115 C 65.12 42.758 64.597 43.544 64.164 44.173 C 63.731 44.803 63.183 45.572 62.73 46.187 C 62.277 46.802 61.705 47.554 61.233 48.154 C 60.761 48.754 60.165 49.488 59.674 50.073 C 59.183 50.658 58.565 51.372 58.056 51.941 C 57.546 52.51 56.905 53.204 56.378 53.757 C 55.851 54.309 55.189 54.983 54.644 55.518 C 54.1 56.054 53.416 56.706 52.855 57.224 C 52.294 57.742 51.59 58.372 51.013 58.872 C 50.436 59.373 49.712 59.98 49.12 60.461 C 48.527 60.943 47.784 61.527 47.176 61.989 C 46.569 62.452 45.808 63.012 45.186 63.455 C 44.564 63.898 43.786 64.434 43.15 64.857 C 42.514 65.28 41.719 65.79 41.07 66.193 C 40.421 66.596 39.611 67.081 38.95 67.463 L 0 0 L 77.9 0 Z " fill="#f7d046" stroke="transparent" stroke-width="1" stroke-opacity="1" fill-opacity="1" class="" visibility="visible" stroke-linecap="butt" stroke-linejoin="miter" stroke-miterlimit="4" id="two-440"></path>
            <text transform="matrix(0 -1 1 0 0 -66.995)" font-family="sans-serif" font-size="9.348" line-height="17" text-anchor="end" dominant-baseline="middle" alignment-baseline="middle" font-style="normal" font-weight="500" text-decoration="none" fill="#fff" stroke="transparent" stroke-width="1" opacity="1" class="" visibility="visible" id="two-441">Well...</text>
            <path transform="matrix(0.5 -0.867 0.866 0.5 0 0)" d="M 77.9 0 C 77.9 0 77.909 0.944 77.86 2.471 C 77.836 3.234 77.791 4.178 77.743 4.94 C 77.694 5.702 77.619 6.644 77.547 7.404 C 77.474 8.165 77.369 9.103 77.273 9.861 C 77.176 10.619 77.042 11.554 76.921 12.308 C 76.8 13.062 76.636 13.992 76.492 14.742 C 76.347 15.492 76.154 16.417 75.985 17.162 C 75.817 17.907 75.595 18.825 75.403 19.564 C 75.211 20.303 74.959 21.214 74.744 21.946 C 74.529 22.679 74.248 23.581 74.01 24.307 C 73.772 25.032 73.463 25.925 73.202 26.643 C 72.94 27.361 72.603 28.243 72.319 28.952 C 72.036 29.661 71.671 30.532 71.364 31.232 C 71.058 31.932 70.666 32.791 70.337 33.481 C 70.009 34.17 69.59 35.017 69.24 35.695 C 68.89 36.374 68.444 37.207 68.072 37.874 C 67.701 38.542 67.229 39.36 66.836 40.015 C 66.444 40.67 65.946 41.473 65.533 42.115 C 65.12 42.758 64.597 43.544 64.164 44.173 C 63.731 44.803 63.183 45.572 62.73 46.187 C 62.277 46.802 61.705 47.554 61.233 48.154 C 60.761 48.754 60.165 49.488 59.674 50.073 C 59.183 50.658 58.565 51.372 58.056 51.941 C 57.546 52.51 56.905 53.204 56.378 53.757 C 55.851 54.309 55.189 54.983 54.644 55.518 C 54.1 56.054 53.416 56.706 52.855 57.224 C 52.294 57.742 51.59 58.372 51.013 58.872 C 50.436 59.373 49.712 59.98 49.12 60.461 C 48.527 60.943 47.784 61.527 47.176 61.989 C 46.569 62.452 45.808 63.012 45.186 63.455 C 44.564 63.898 43.786 64.434 43.15 64.857 C 42.514 65.28 41.719 65.79 41.07 66.193 C 40.421 66.596 39.611 67.081 38.95 67.463 L 0 0 L 77.9 0 Z " fill="#ff4c5a" stroke="transparent" stroke-width="1" stroke-opacity="1" fill-opacity="1" class="" visibility="visible" stroke-linecap="butt" stroke-linejoin="miter" stroke-miterlimit="4" id="two-442"></path>
            <text transform="matrix(0.866 -0.5 0.5 0.866 58.018 -33.498)" font-family="sans-serif" font-size="9.348" line-height="17" text-anchor="end" dominant-baseline="middle" alignment-baseline="middle" font-style="normal" font-weight="500" text-decoration="none" fill="#fff" stroke="transparent" stroke-width="1" opacity="1" class="" visibility="visible" id="two-443">do</text>
            <path transform="matrix(1 0 0 1 0 0)" d="M 77.9 0 C 77.9 0 77.909 0.944 77.86 2.471 C 77.836 3.234 77.791 4.178 77.743 4.94 C 77.694 5.702 77.619 6.644 77.547 7.404 C 77.474 8.165 77.369 9.103 77.273 9.861 C 77.176 10.619 77.042 11.554 76.921 12.308 C 76.8 13.062 76.636 13.992 76.492 14.742 C 76.347 15.492 76.154 16.417 75.985 17.162 C 75.817 17.907 75.595 18.825 75.403 19.564 C 75.211 20.303 74.959 21.214 74.744 21.946 C 74.529 22.679 74.248 23.581 74.01 24.307 C 73.772 25.032 73.463 25.925 73.202 26.643 C 72.94 27.361 72.603 28.243 72.319 28.952 C 72.036 29.661 71.671 30.532 71.364 31.232 C 71.058 31.932 70.666 32.791 70.337 33.481 C 70.009 34.17 69.59 35.017 69.24 35.695 C 68.89 36.374 68.444 37.207 68.072 37.874 C 67.701 38.542 67.229 39.36 66.836 40.015 C 66.444 40.67 65.946 41.473 65.533 42.115 C 65.12 42.758 64.597 43.544 64.164 44.173 C 63.731 44.803 63.183 45.572 62.73 46.187 C 62.277 46.802 61.705 47.554 61.233 48.154 C 60.761 48.754 60.165 49.488 59.674 50.073 C 59.183 50.658 58.565 51.372 58.056 51.941 C 57.546 52.51 56.905 53.204 56.378 53.757 C 55.851 54.309 55.189 54.983 54.644 55.518 C 54.1 56.054 53.416 56.706 52.855 57.224 C 52.294 57.742 51.59 58.372 51.013 58.872 C 50.436 59.373 49.712 59.98 49.12 60.461 C 48.527 60.943 47.784 61.527 47.176 61.989 C 46.569 62.452 45.808 63.012 45.186 63.455 C 44.564 63.898 43.786 64.434 43.15 64.857 C 42.514 65.28 41.719 65.79 41.07 66.193 C 40.421 66.596 39.611 67.081 38.95 67.463 L 0 0 L 77.9 0 Z " fill="#f08cba" stroke="transparent" stroke-width="1" stroke-opacity="1" fill-opacity="1" class="" visibility="visible" stroke-linecap="butt" stroke-linejoin="miter" stroke-miterlimit="4" id="two-444"></path>
            <text transform="matrix(0.866 0.5 -0.5 0.866 58.018 33.497)" font-family="sans-serif" font-size="9.348" line-height="17" text-anchor="end" dominant-baseline="middle" alignment-baseline="middle" font-style="normal" font-weight="500" text-decoration="none" fill="#fff" stroke="transparent" stroke-width="1" opacity="1" class="" visibility="visible" id="two-445">ya</text>
            <path transform="matrix(0.5 0.866 -0.867 0.5 0 0)" d="M 77.9 0 C 77.9 0 77.909 0.944 77.86 2.471 C 77.836 3.234 77.791 4.178 77.743 4.94 C 77.694 5.702 77.619 6.644 77.547 7.404 C 77.474 8.165 77.369 9.103 77.273 9.861 C 77.176 10.619 77.042 11.554 76.921 12.308 C 76.8 13.062 76.636 13.992 76.492 14.742 C 76.347 15.492 76.154 16.417 75.985 17.162 C 75.817 17.907 75.595 18.825 75.403 19.564 C 75.211 20.303 74.959 21.214 74.744 21.946 C 74.529 22.679 74.248 23.581 74.01 24.307 C 73.772 25.032 73.463 25.925 73.202 26.643 C 72.94 27.361 72.603 28.243 72.319 28.952 C 72.036 29.661 71.671 30.532 71.364 31.232 C 71.058 31.932 70.666 32.791 70.337 33.481 C 70.009 34.17 69.59 35.017 69.24 35.695 C 68.89 36.374 68.444 37.207 68.072 37.874 C 67.701 38.542 67.229 39.36 66.836 40.015 C 66.444 40.67 65.946 41.473 65.533 42.115 C 65.12 42.758 64.597 43.544 64.164 44.173 C 63.731 44.803 63.183 45.572 62.73 46.187 C 62.277 46.802 61.705 47.554 61.233 48.154 C 60.761 48.754 60.165 49.488 59.674 50.073 C 59.183 50.658 58.565 51.372 58.056 51.941 C 57.546 52.51 56.905 53.204 56.378 53.757 C 55.851 54.309 55.189 54.983 54.644 55.518 C 54.1 56.054 53.416 56.706 52.855 57.224 C 52.294 57.742 51.59 58.372 51.013 58.872 C 50.436 59.373 49.712 59.98 49.12 60.461 C 48.527 60.943 47.784 61.527 47.176 61.989 C 46.569 62.452 45.808 63.012 45.186 63.455 C 44.564 63.898 43.786 64.434 43.15 64.857 C 42.514 65.28 41.719 65.79 41.07 66.193 C 40.421 66.596 39.611 67.081 38.95 67.463 L 0 0 L 77.9 0 Z " fill="#49c4d2" stroke="transparent" stroke-width="1" stroke-opacity="1" fill-opacity="1" class="" visibility="visible" stroke-linecap="butt" stroke-linejoin="miter" stroke-miterlimit="4" id="two-446"></path>
            <text transform="matrix(0 1 -1 0 0 66.994)" font-family="sans-serif" font-size="9.348" line-height="17" text-anchor="end" dominant-baseline="middle" alignment-baseline="middle" font-style="normal" font-weight="500" text-decoration="none" fill="#fff" stroke="transparent" stroke-width="1" opacity="1" class="" visibility="visible" id="two-447">feel</text><path transform="matrix(-0.5 0.866 -0.867 -0.5 0 0)" d="M 77.9 0 C 77.9 0 77.909 0.944 77.86 2.471 C 77.836 3.234 77.791 4.178 77.743 4.94 C 77.694 5.702 77.619 6.644 77.547 7.404 C 77.474 8.165 77.369 9.103 77.273 9.861 C 77.176 10.619 77.042 11.554 76.921 12.308 C 76.8 13.062 76.636 13.992 76.492 14.742 C 76.347 15.492 76.154 16.417 75.985 17.162 C 75.817 17.907 75.595 18.825 75.403 19.564 C 75.211 20.303 74.959 21.214 74.744 21.946 C 74.529 22.679 74.248 23.581 74.01 24.307 C 73.772 25.032 73.463 25.925 73.202 26.643 C 72.94 27.361 72.603 28.243 72.319 28.952 C 72.036 29.661 71.671 30.532 71.364 31.232 C 71.058 31.932 70.666 32.791 70.337 33.481 C 70.009 34.17 69.59 35.017 69.24 35.695 C 68.89 36.374 68.444 37.207 68.072 37.874 C 67.701 38.542 67.229 39.36 66.836 40.015 C 66.444 40.67 65.946 41.473 65.533 42.115 C 65.12 42.758 64.597 43.544 64.164 44.173 C 63.731 44.803 63.183 45.572 62.73 46.187 C 62.277 46.802 61.705 47.554 61.233 48.154 C 60.761 48.754 60.165 49.488 59.674 50.073 C 59.183 50.658 58.565 51.372 58.056 51.941 C 57.546 52.51 56.905 53.204 56.378 53.757 C 55.851 54.309 55.189 54.983 54.644 55.518 C 54.1 56.054 53.416 56.706 52.855 57.224 C 52.294 57.742 51.59 58.372 51.013 58.872 C 50.436 59.373 49.712 59.98 49.12 60.461 C 48.527 60.943 47.784 61.527 47.176 61.989 C 46.569 62.452 45.808 63.012 45.186 63.455 C 44.564 63.898 43.786 64.434 43.15 64.857 C 42.514 65.28 41.719 65.79 41.07 66.193 C 40.421 66.596 39.611 67.081 38.95 67.463 L 0 0 L 77.9 0 Z " fill="#924e84" stroke="transparent" stroke-width="1" stroke-opacity="1" fill-opacity="1" class="" visibility="visible" stroke-linecap="butt" stroke-linejoin="miter" stroke-miterlimit="4" id="two-448"></path>
            <text transform="matrix(-0.867 0.5 -0.5 -0.867 -58.019 33.497)" font-family="sans-serif" font-size="9.348" line-height="17" text-anchor="end" dominant-baseline="middle" alignment-baseline="middle" font-style="normal" font-weight="500" text-decoration="none" fill="#fff" stroke="transparent" stroke-width="1" opacity="1" class="" visibility="visible" id="two-449">lucky...</text>
            <path transform="matrix(-1 0 -0.001 -1 0 0)" d="M 77.9 0 C 77.9 0 77.909 0.944 77.86 2.471 C 77.836 3.234 77.791 4.178 77.743 4.94 C 77.694 5.702 77.619 6.644 77.547 7.404 C 77.474 8.165 77.369 9.103 77.273 9.861 C 77.176 10.619 77.042 11.554 76.921 12.308 C 76.8 13.062 76.636 13.992 76.492 14.742 C 76.347 15.492 76.154 16.417 75.985 17.162 C 75.817 17.907 75.595 18.825 75.403 19.564 C 75.211 20.303 74.959 21.214 74.744 21.946 C 74.529 22.679 74.248 23.581 74.01 24.307 C 73.772 25.032 73.463 25.925 73.202 26.643 C 72.94 27.361 72.603 28.243 72.319 28.952 C 72.036 29.661 71.671 30.532 71.364 31.232 C 71.058 31.932 70.666 32.791 70.337 33.481 C 70.009 34.17 69.59 35.017 69.24 35.695 C 68.89 36.374 68.444 37.207 68.072 37.874 C 67.701 38.542 67.229 39.36 66.836 40.015 C 66.444 40.67 65.946 41.473 65.533 42.115 C 65.12 42.758 64.597 43.544 64.164 44.173 C 63.731 44.803 63.183 45.572 62.73 46.187 C 62.277 46.802 61.705 47.554 61.233 48.154 C 60.761 48.754 60.165 49.488 59.674 50.073 C 59.183 50.658 58.565 51.372 58.056 51.941 C 57.546 52.51 56.905 53.204 56.378 53.757 C 55.851 54.309 55.189 54.983 54.644 55.518 C 54.1 56.054 53.416 56.706 52.855 57.224 C 52.294 57.742 51.59 58.372 51.013 58.872 C 50.436 59.373 49.712 59.98 49.12 60.461 C 48.527 60.943 47.784 61.527 47.176 61.989 C 46.569 62.452 45.808 63.012 45.186 63.455 C 44.564 63.898 43.786 64.434 43.15 64.857 C 42.514 65.28 41.719 65.79 41.07 66.193 C 40.421 66.596 39.611 67.081 38.95 67.463 L 0 0 L 77.9 0 Z " fill="#fd926f" stroke="transparent" stroke-width="1" stroke-opacity="1" fill-opacity="1" class="" visibility="visible" stroke-linecap="butt" stroke-linejoin="miter" stroke-miterlimit="4" id="two-450"></path>
            <text transform="matrix(-0.867 -0.5 0.5 -0.867 -58.019 -33.498)" font-family="sans-serif" font-size="9.348" line-height="17" text-anchor="end" dominant-baseline="middle" alignment-baseline="middle" font-style="normal" font-weight="500" text-decoration="none" fill="#fff" stroke="transparent" stroke-width="1" opacity="1" class="" visibility="visible" id="two-451">punk?</text>
        </g>
        <path transform="matrix(1 0 0 1 192.699 102.5)" d="M 6.149 0 C 6.149 0 6.235 1.016 5.681 2.353 C 5.404 3.021 4.86 3.837 4.348 4.348 C 3.837 4.86 3.021 5.404 2.353 5.681 C 1.685 5.958 0.723 6.149 0 6.149 C -0.724 6.149 -1.686 5.958 -2.354 5.681 C -3.022 5.404 -3.838 4.86 -4.349 4.348 C -4.861 3.837 -5.405 3.021 -5.682 2.353 C -5.959 1.685 -6.15 0.723 -6.15 0 C -6.15 -0.724 -5.959 -1.686 -5.682 -2.354 C -5.405 -3.022 -4.861 -3.838 -4.349 -4.349 C -3.838 -4.861 -3.022 -5.405 -2.354 -5.682 C -1.686 -5.959 -0.724 -6.15 -0.001 -6.15 C 0.723 -6.15 1.685 -5.959 2.353 -5.682 C 3.021 -5.405 3.837 -4.861 4.348 -4.349 C 4.86 -3.838 5.404 -3.022 5.681 -2.354 C 5.958 -1.686 6.149 -0.724 6.149 -0.001 Z M 12.299 -0.001 C 12.299 -0.001 12.471 -2.034 11.363 -4.708 C 10.809 -6.044 9.72 -7.675 8.697 -8.698 C 7.674 -9.721 6.043 -10.81 4.707 -11.364 C 3.37 -11.918 1.447 -12.3 -0.001 -12.3 C -1.448 -12.3 -3.371 -11.918 -4.708 -11.364 C -6.044 -10.81 -7.675 -9.721 -8.698 -8.698 C -9.721 -7.675 -10.81 -6.044 -11.364 -4.708 C -11.918 -3.371 -12.3 -1.448 -12.3 0 C -12.3 1.447 -11.918 3.37 -11.364 4.707 C -10.81 6.043 -9.721 7.674 -8.698 8.697 C -7.675 9.72 -6.044 10.809 -4.708 11.363 C -3.371 11.917 -1.448 12.299 0 12.299 C 1.447 12.299 3.37 11.917 4.707 11.363 C 6.043 10.809 7.674 9.72 8.697 8.697 C 9.72 7.674 10.809 6.043 11.363 4.707 C 11.917 3.37 12.299 1.447 12.299 0 L 6.149 0 Z " fill="#fff" stroke="transparent" stroke-width="1" stroke-opacity="1" fill-opacity="1" class="" visibility="visible" stroke-linecap="butt" stroke-linejoin="miter" stroke-miterlimit="4" id="two-452"></path>
        <path transform="matrix(1 0 0 1 177.324 102.5)" d="M 3.074 0 L 9.224 10.652 L -9.225 0 L 9.224 -10.653 Z " fill="#fff" stroke="transparent" stroke-width="1" stroke-opacity="1" fill-opacity="1" class="" visibility="visible" stroke-linecap="butt" stroke-linejoin="miter" stroke-miterlimit="4" id="two-453"></path>
        <path transform="matrix(1 0 0 1 192.699 102.5)" d="M 6.149 0 C 6.149 0 6.235 1.016 5.681 2.353 C 5.404 3.021 4.86 3.837 4.348 4.348 C 3.837 4.86 3.021 5.404 2.353 5.681 C 1.685 5.958 0.723 6.149 0 6.149 C -0.724 6.149 -1.686 5.958 -2.354 5.681 C -3.022 5.404 -3.838 4.86 -4.349 4.348 C -4.861 3.837 -5.405 3.021 -5.682 2.353 C -5.959 1.685 -6.15 0.723 -6.15 0 C -6.15 -0.724 -5.959 -1.686 -5.682 -2.354 C -5.405 -3.022 -4.861 -3.838 -4.349 -4.349 C -3.838 -4.861 -3.022 -5.405 -2.354 -5.682 C -1.686 -5.959 -0.724 -6.15 -0.001 -6.15 C 0.723 -6.15 1.685 -5.959 2.353 -5.682 C 3.021 -5.405 3.837 -4.861 4.348 -4.349 C 4.86 -3.838 5.404 -3.022 5.681 -2.354 C 5.958 -1.686 6.149 -0.724 6.149 -0.001 Z M 12.299 -0.001 C 12.299 -0.001 12.471 -2.034 11.363 -4.708 C 10.809 -6.044 9.72 -7.675 8.697 -8.698 C 7.674 -9.721 6.043 -10.81 4.707 -11.364 C 3.37 -11.918 1.447 -12.3 -0.001 -12.3 C -1.448 -12.3 -3.371 -11.918 -4.708 -11.364 C -6.044 -10.81 -7.675 -9.721 -8.698 -8.698 C -9.721 -7.675 -10.81 -6.044 -11.364 -4.708 C -11.918 -3.371 -12.3 -1.448 -12.3 0 C -12.3 1.447 -11.918 3.37 -11.364 4.707 C -10.81 6.043 -9.721 7.674 -8.698 8.697 C -7.675 9.72 -6.044 10.809 -4.708 11.363 C -3.371 11.917 -1.448 12.299 0 12.299 C 1.447 12.299 3.37 11.917 4.707 11.363 C 6.043 10.809 7.674 9.72 8.697 8.697 C 9.72 7.674 10.809 6.043 11.363 4.707 C 11.917 3.37 12.299 1.447 12.299 0 L 6.149 0 Z " fill="#fff" stroke="transparent" stroke-width="1" stroke-opacity="1" fill-opacity="1" class="" visibility="visible" stroke-linecap="butt" stroke-linejoin="miter" stroke-miterlimit="4" id="two-454"></path>
        <path transform="matrix(1 0 0 1 177.324 102.5)" d="M 3.074 0 L 9.224 10.652 L -9.225 0 L 9.224 -10.653 Z " fill="#fff" stroke="transparent" stroke-width="1" stroke-opacity="1" fill-opacity="1" class="" visibility="visible" stroke-linecap="butt" stroke-linejoin="miter" stroke-miterlimit="4" id="two-455"></path>
        <path transform="matrix(1 0 0 1 192.699 102.5)" d="M 6.149 0 C 6.149 0 6.235 1.016 5.681 2.353 C 5.404 3.021 4.86 3.837 4.348 4.348 C 3.837 4.86 3.021 5.404 2.353 5.681 C 1.685 5.958 0.723 6.149 0 6.149 C -0.724 6.149 -1.686 5.958 -2.354 5.681 C -3.022 5.404 -3.838 4.86 -4.349 4.348 C -4.861 3.837 -5.405 3.021 -5.682 2.353 C -5.959 1.685 -6.15 0.723 -6.15 0 C -6.15 -0.724 -5.959 -1.686 -5.682 -2.354 C -5.405 -3.022 -4.861 -3.838 -4.349 -4.349 C -3.838 -4.861 -3.022 -5.405 -2.354 -5.682 C -1.686 -5.959 -0.724 -6.15 -0.001 -6.15 C 0.723 -6.15 1.685 -5.959 2.353 -5.682 C 3.021 -5.405 3.837 -4.861 4.348 -4.349 C 4.86 -3.838 5.404 -3.022 5.681 -2.354 C 5.958 -1.686 6.149 -0.724 6.149 -0.001 Z M 12.299 -0.001 C 12.299 -0.001 12.471 -2.034 11.363 -4.708 C 10.809 -6.044 9.72 -7.675 8.697 -8.698 C 7.674 -9.721 6.043 -10.81 4.707 -11.364 C 3.37 -11.918 1.447 -12.3 -0.001 -12.3 C -1.448 -12.3 -3.371 -11.918 -4.708 -11.364 C -6.044 -10.81 -7.675 -9.721 -8.698 -8.698 C -9.721 -7.675 -10.81 -6.044 -11.364 -4.708 C -11.918 -3.371 -12.3 -1.448 -12.3 0 C -12.3 1.447 -11.918 3.37 -11.364 4.707 C -10.81 6.043 -9.721 7.674 -8.698 8.697 C -7.675 9.72 -6.044 10.809 -4.708 11.363 C -3.371 11.917 -1.448 12.299 0 12.299 C 1.447 12.299 3.37 11.917 4.707 11.363 C 6.043 10.809 7.674 9.72 8.697 8.697 C 9.72 7.674 10.809 6.043 11.363 4.707 C 11.917 3.37 12.299 1.447 12.299 0 L 6.149 0 Z " fill="#fff" stroke="transparent" stroke-width="1" stroke-opacity="1" fill-opacity="1" class="" visibility="visible" stroke-linecap="butt" stroke-linejoin="miter" stroke-miterlimit="4" id="two-456"></path>
        <path transform="matrix(1 0 0 1 177.324 102.5)" d="M 3.074 0 L 9.224 10.652 L -9.225 0 L 9.224 -10.653 Z " fill="#fff" stroke="transparent" stroke-width="1" stroke-opacity="1" fill-opacity="1" class="" visibility="visible" stroke-linecap="butt" stroke-linejoin="miter" stroke-miterlimit="4" id="two-457"></path>
    </g>
</svg>